# xmcd
#
# Track frame offsets:
#	150
#	11841
#	26196
#	38434
#	49772
#	62288
#	72118
#	85918
#	98688
#	114341
#	128196
#	139313
#	152187
#	166684
#	180668
#	192345
#	204293
#	214030
#	225643
#	235964
#
# Disc length: 3249 seconds
#
# Revision: 0
# Processed by: cddbd v1.5PL3 Copyright (c) Steve Scherf et al.
# Submitted via: audiograbber 1.83.01
#
DISCID=060caf14
DTITLE=Ursula West - Daughter of Country
DYEAR=2002
DGENRE=Country
TTITLE0=One's on the way
TTITLE1=The good old days, when times...
TTITLE2=Golden streets of glory
TTITLE3=I don't want to throw rice
TTITLE4=Bring him safely home to me
TTITLE5=You'r gonna be sorry
TTITLE6=Daddy come and get me
TTITLE7=The bargain store
TTITLE8=The moon, the stars and me
TTITLE9=Woman to woman
TTITLE10=False eyelashes
TTITLE11=Smile, somebody loves you
TTITLE12=I'm not easy
TTITLE13=Harper valley  P.T.A.
TTITLE14=Run woman run
TTITLE15=Touch your woman
TTITLE16=Singing my song
TTITLE17=Go west
TTITLE18=I believe
TTITLE19=Happy heart
EXTD=
EXTT0=
EXTT1=
EXTT2=
EXTT3=
EXTT4=
EXTT5=
EXTT6=
EXTT7=
EXTT8=
EXTT9=
EXTT10=
EXTT11=
EXTT12=
EXTT13=
EXTT14=
EXTT15=
EXTT16=
EXTT17=
EXTT18=
EXTT19=
PLAYORDER=
